<svg width="120" height="140" viewBox="0 0 120 140" fill="none" xmlns="http://www.w3.org/2000/svg">
<path d="M109.54 20.07H118.97C119.72 24.4 119.98 82.74 119.31 99.57H109.54V49.88H89.66V39.94H109.54V20.06V20.07Z" fill="#353535"/>
<path d="M10.16 99.58H0.720003C-0.0199969 95.25 -0.279997 36.91 0.380003 20.07H10.15V39.95H30.03V49.89H10.16V99.58Z" fill="#353535"/>
<path d="M89.66 129.39V138.82C85.41 139.56 45.85 139.79 30.03 139.16V129.39H89.66Z" fill="#353535"/>
<path d="M30.03 10.14V0.709999C34.28 -0.0300008 73.84 -0.270001 89.66 0.369999V10.14H30.03V10.14Z" fill="#353535"/>
<path d="M109.54 99.58V119.46H99.6V99.58H109.54Z" fill="#353535"/>
<path d="M20.09 119.45H10.15V99.57H20.09V119.45Z" fill="#353535"/>
<path d="M89.66 10.14H109.54V20.08H89.66V10.14V10.14Z" fill="#353535"/>
<path d="M10.16 20.07V10.13H30.04V20.07H10.16Z" fill="#353535"/>
<path d="M30.03 129.39H20.09V119.45H30.03V129.39Z" fill="#353535"/>
<path d="M99.6 119.45V129.39H89.66V119.45H99.6V119.45Z" fill="#353535"/>
<path d="M89.66 49.89H99.6V99.58H89.66V119.46H79.72V59.83H89.66V49.89V49.89Z" fill="#727272"/>
<path d="M99.6 89.64V69.76H109.54V89.64H99.6Z" fill="#A8A8A8"/>
<path d="M109.54 69.76H99.6V49.88H109.54V69.76Z" fill="#969696"/>
<path d="M109.54 30.01H99.6V20.07H109.54V30.01V30.01Z" fill="#787878"/>
<path d="M99.6 89.64H109.54V99.58H99.6V89.64Z" fill="#969696"/>
<path d="M20.09 109.52V79.71H10.15V49.9H20.09V59.84H49.9V129.41H39.96V119.47H30.02V109.53H20.08L20.09 109.52ZM39.8 99.5V69.73C36.43 69.91 33.21 69.58 30.19 69.91V99.5H39.8V99.5Z" fill="#D8D8D8"/>
<path d="M10.16 20.07H20.1V30.01H10.16V20.07V20.07Z" fill="#787878"/>
<path d="M30.03 59.83H20.09V49.89H30.03V59.83Z" fill="#A8A8A8"/>
<path d="M10.16 79.7H20.1V89.64H10.16V79.7V79.7Z" fill="#A8A8A8"/>
<path d="M10.16 89.64H20.1V99.58H10.16V89.64V89.64Z" fill="#727272"/>
<path d="M49.91 129.39V59.83H69.79V109.46C66.28 109.66 63.02 109.3 59.85 109.68V129.39H49.91V129.39Z" fill="#A8A8A8"/>
<path d="M59.85 129.39V109.68C63.02 109.3 66.27 109.66 69.79 109.46V59.83H79.73V119.46H69.79V129.4H59.85V129.39Z" fill="#969696"/>
<path d="M30.03 119.45H39.97V129.39H30.03V119.45V119.45Z" fill="#A8A8A8"/>
<path d="M69.78 129.39V119.45H79.72V129.39H69.78Z" fill="#727272"/>
<path d="M79.72 129.39V119.45H89.66V129.39H79.72Z" fill="#969696"/>
<path d="M89.66 10.14V20.08H49.91V10.14H89.66V10.14Z" fill="#989898"/>
<path d="M49.91 10.14V20.08H30.03V10.14H49.91V10.14Z" fill="#787878"/>
<path d="M89.66 119.45V99.57H99.6V119.45H89.66Z" fill="#969696"/>
<path d="M20.09 109.52H30.03V119.46H20.09V109.52V109.52Z" fill="#A8A8A8"/>
<path d="M79.72 59.83H30.03V49.89H89.66V59.83H79.72Z" fill="#353535"/>
<path d="M99.44 29.94V20H19.94V29.94H10V39.88H29.88V49.82H89.51V39.88H109.39V29.94H99.45H99.44Z" fill="#234FCC"/>
</svg>
